<?xml version="1.0" encoding="UTF-8" standalone="no"?>
<!DOCTYPE svg PUBLIC "-//W3C//DTD SVG 1.1//EN"
 "http://www.w3.org/Graphics/SVG/1.1/DTD/svg11.dtd">
<!-- Generated by graphviz version 12.1.2 (20240928.0832)
 -->
<!-- Title: Graphical Class Hierarchy Pages: 1 -->
<svg width="196pt" height="66pt"
 viewBox="0.00 0.00 196.00 66.00" xmlns="http://www.w3.org/2000/svg" xmlns:xlink="http://www.w3.org/1999/xlink">
<g id="graph0" class="graph" transform="scale(1 1) rotate(0) translate(4 62)">
<title>Graphical Class Hierarchy</title>
<!-- Node0 -->
<g id="Node000000" class="node">
<title>Node0</title>
<g id="a_Node000000"><a xlink:title=" ">
<polygon fill="#e0e0e0" stroke="#999999" points="70,-39 0,-39 0,-19 70,-19 70,-39"/>
<text text-anchor="middle" x="35" y="-25.5" font-family="Helvetica,sans-Serif" font-size="10.00">testing::Test</text>
</a>
</g>
</g>
<!-- Node1 -->
<g id="Node000001" class="node">
<title>Node1</title>
<g id="a_Node000001"><a xlink:href="class_calculator_test.html" target="_top" xlink:title=" ">
<polygon fill="white" stroke="#666666" points="186.5,-58 107.5,-58 107.5,-38 186.5,-38 186.5,-58"/>
<text text-anchor="middle" x="147" y="-44.5" font-family="Helvetica,sans-Serif" font-size="10.00">CalculatorTest</text>
</a>
</g>
</g>
<!-- Node0&#45;&gt;Node1 -->
<g id="edge1_Node000000_Node000001" class="edge">
<title>Node0&#45;&gt;Node1</title>
<g id="a_edge1_Node000000_Node000001"><a xlink:title=" ">
<path fill="none" stroke="#63b8ff" d="M81.26,-36.82C89.88,-38.31 98.82,-39.85 107.21,-41.3"/>
<polygon fill="#63b8ff" stroke="#63b8ff" points="82.14,-33.42 71.69,-35.17 80.95,-40.32 82.14,-33.42"/>
</a>
</g>
</g>
<!-- Node2 -->
<g id="Node000002" class="node">
<title>Node2</title>
<g id="a_Node000002"><a xlink:href="class_math_utility_test.html" target="_top" xlink:title=" ">
<polygon fill="white" stroke="#666666" points="188,-20 106,-20 106,0 188,0 188,-20"/>
<text text-anchor="middle" x="147" y="-6.5" font-family="Helvetica,sans-Serif" font-size="10.00">MathUtilityTest</text>
</a>
</g>
</g>
<!-- Node0&#45;&gt;Node2 -->
<g id="edge2_Node000000_Node000002" class="edge">
<title>Node0&#45;&gt;Node2</title>
<g id="a_edge2_Node000000_Node000002"><a xlink:title=" ">
<path fill="none" stroke="#63b8ff" d="M81.33,-21.17C89.39,-19.78 97.74,-18.34 105.65,-16.97"/>
<polygon fill="#63b8ff" stroke="#63b8ff" points="80.95,-17.68 71.69,-22.83 82.14,-24.58 80.95,-17.68"/>
</a>
</g>
</g>
</g>
</svg>
