<?xml version="1.0" encoding="UTF-8" standalone="no"?>
<!DOCTYPE svg PUBLIC "-//W3C//DTD SVG 1.1//EN"
 "http://www.w3.org/Graphics/SVG/1.1/DTD/svg11.dtd">
<!-- Generated by graphviz version 12.1.2 (20240928.0832)
 -->
<!-- Title: src/calculator/header/calculator.h Pages: 1 -->
<svg width="227pt" height="164pt"
 viewBox="0.00 0.00 226.62 164.00" xmlns="http://www.w3.org/2000/svg" xmlns:xlink="http://www.w3.org/1999/xlink">
<g id="graph0" class="graph" transform="scale(1 1) rotate(0) translate(4 160)">
<title>src/calculator/header/calculator.h</title>
<!-- Node1 -->
<g id="Node000001" class="node">
<title>Node1</title>
<g id="a_Node000001"><a xlink:title="Provides functions for Monte Carlo Pi calculation and visualization.">
<polygon fill="#999999" stroke="#666666" points="183.88,-156 77.12,-156 77.12,-124 183.88,-124 183.88,-156"/>
<text text-anchor="start" x="85.12" y="-142.5" font-family="Helvetica,sans-Serif" font-size="10.00">src/calculator/header</text>
<text text-anchor="middle" x="130.5" y="-130.5" font-family="Helvetica,sans-Serif" font-size="10.00">/calculator.h</text>
</a>
</g>
</g>
<!-- Node2 -->
<g id="Node000002" class="node">
<title>Node2</title>
<g id="a_Node000002"><a xlink:href="common_types_8h.html" target="_top" xlink:title="Provides cross&#45;platform type definitions.">
<polygon fill="white" stroke="#666666" points="91,-88 0,-88 0,-56 91,-56 91,-88"/>
<text text-anchor="start" x="8" y="-74.5" font-family="Helvetica,sans-Serif" font-size="10.00">../../utility/header</text>
<text text-anchor="middle" x="45.5" y="-62.5" font-family="Helvetica,sans-Serif" font-size="10.00">/commonTypes.h</text>
</a>
</g>
</g>
<!-- Node1&#45;&gt;Node2 -->
<g id="edge1_Node000001_Node000002" class="edge">
<title>Node1&#45;&gt;Node2</title>
<g id="a_edge1_Node000001_Node000002"><a xlink:title=" ">
<path fill="none" stroke="#63b8ff" d="M110.79,-123.69C99.92,-115.26 86.24,-104.63 74.21,-95.29"/>
<polygon fill="#63b8ff" stroke="#63b8ff" points="76.64,-92.75 66.6,-89.38 72.35,-98.28 76.64,-92.75"/>
</a>
</g>
</g>
<!-- Node4 -->
<g id="Node000004" class="node">
<title>Node4</title>
<g id="a_Node000004"><a xlink:title=" ">
<polygon fill="#e0e0e0" stroke="#999999" points="152,-82 109,-82 109,-62 152,-62 152,-82"/>
<text text-anchor="middle" x="130.5" y="-68.5" font-family="Helvetica,sans-Serif" font-size="10.00">vector</text>
</a>
</g>
</g>
<!-- Node1&#45;&gt;Node4 -->
<g id="edge3_Node000001_Node000004" class="edge">
<title>Node1&#45;&gt;Node4</title>
<g id="a_edge3_Node000001_Node000004"><a xlink:title=" ">
<path fill="none" stroke="#63b8ff" d="M130.5,-123.69C130.5,-114.8 130.5,-103.46 130.5,-93.77"/>
<polygon fill="#63b8ff" stroke="#63b8ff" points="134,-93.83 130.5,-83.83 127,-93.83 134,-93.83"/>
</a>
</g>
</g>
<!-- Node5 -->
<g id="Node000005" class="node">
<title>Node5</title>
<g id="a_Node000005"><a xlink:title=" ">
<polygon fill="#e0e0e0" stroke="#999999" points="218.62,-82 170.38,-82 170.38,-62 218.62,-62 218.62,-82"/>
<text text-anchor="middle" x="194.5" y="-68.5" font-family="Helvetica,sans-Serif" font-size="10.00">random</text>
</a>
</g>
</g>
<!-- Node1&#45;&gt;Node5 -->
<g id="edge4_Node000001_Node000005" class="edge">
<title>Node1&#45;&gt;Node5</title>
<g id="a_edge4_Node000001_Node000005"><a xlink:title=" ">
<path fill="none" stroke="#63b8ff" d="M145.34,-123.69C154.94,-113.8 167.46,-100.89 177.46,-90.57"/>
<polygon fill="#63b8ff" stroke="#63b8ff" points="179.96,-93.02 184.41,-83.4 174.94,-88.15 179.96,-93.02"/>
</a>
</g>
</g>
<!-- Node3 -->
<g id="Node000003" class="node">
<title>Node3</title>
<g id="a_Node000003"><a xlink:title=" ">
<polygon fill="#e0e0e0" stroke="#999999" points="74.88,-20 16.12,-20 16.12,0 74.88,0 74.88,-20"/>
<text text-anchor="middle" x="45.5" y="-6.5" font-family="Helvetica,sans-Serif" font-size="10.00">stdexcept</text>
</a>
</g>
</g>
<!-- Node2&#45;&gt;Node3 -->
<g id="edge2_Node000002_Node000003" class="edge">
<title>Node2&#45;&gt;Node3</title>
<g id="a_edge2_Node000002_Node000003"><a xlink:title=" ">
<path fill="none" stroke="#63b8ff" d="M45.5,-55.55C45.5,-48.34 45.5,-39.66 45.5,-31.88"/>
<polygon fill="#63b8ff" stroke="#63b8ff" points="49,-31.92 45.5,-21.92 42,-31.92 49,-31.92"/>
</a>
</g>
</g>
</g>
</svg>
