<?xml version="1.0" encoding="UTF-8" standalone="no"?>
<!DOCTYPE svg PUBLIC "-//W3C//DTD SVG 1.1//EN"
 "http://www.w3.org/Graphics/SVG/1.1/DTD/svg11.dtd">
<!-- Generated by graphviz version 12.1.2 (20240928.0832)
 -->
<!-- Title: src/calculatorapp/src/calculatorapp.cpp Pages: 1 -->
<!--zoomable 232 -->

<svg id="main" version="1.1" xmlns="http://www.w3.org/2000/svg" xmlns:xlink="http://www.w3.org/1999/xlink" xml:space="preserve" onload="init(evt)">

<style type="text/css"><![CDATA[
.node, .edge {opacity: 0.7;}
.node.selected, .edge.selected {opacity: 1;}
.edge:hover path { stroke: red; }
.edge:hover polygon { stroke: red; fill: red; }
]]></style>

<defs>
  <circle id="rim" cx="0" cy="0" r="7"/>
  <circle id="rim2" cx="0" cy="0" r="3.5"/>
  <g id="zoomPlus">
    <use xlink:href="#rim" fill="#404040"><set attributeName="fill" to="#808080" begin="zoomplus.mouseover" end="zoomplus.mouseout"/></use>
    <path d="M-4,0h8M0,-4v8" fill="none" stroke="white" stroke-width="1.5" pointer-events="none"/>
  </g>
  <g id="zoomMin">
    <use xlink:href="#rim" fill="#404040"><set attributeName="fill" to="#808080" begin="zoomminus.mouseover" end="zoomminus.mouseout"/></use>
    <path d="M-4,0h8" fill="none" stroke="white" stroke-width="1.5" pointer-events="none"/>
  </g>
  <g id="arrowUp" transform="translate(30 24)">
    <use xlink:href="#rim"/>
    <path pointer-events="none" fill="none" stroke="white" stroke-width="1.5" d="M0,-3.0v7 M-2.5,-0.5L0,-3.0L2.5,-0.5"/>
  </g>
  <g id="arrowRight" transform="rotate(90) translate(36 -43)">
    <use xlink:href="#rim"/>
    <path pointer-events="none" fill="none" stroke="white" stroke-width="1.5" d="M0,-3.0v7 M-2.5,-0.5L0,-3.0L2.5,-0.5"/>
  </g>
  <g id="arrowDown" transform="rotate(180) translate(-30 -48)">
    <use xlink:href="#rim"/>
    <path pointer-events="none" fill="none" stroke="white" stroke-width="1.5" d="M0,-3.0v7 M-2.5,-0.5L0,-3.0L2.5,-0.5"/>
  </g>
  <g id="arrowLeft" transform="rotate(270) translate(-36 17)">
    <use xlink:href="#rim"/>
    <path pointer-events="none" fill="none" stroke="white" stroke-width="1.5" d="M0,-3.0v7 M-2.5,-0.5L0,-3.0L2.5,-0.5"/>
  </g>
  <g id="resetDef">
    <use xlink:href="#rim2" fill="#404040"><set attributeName="fill" to="#808080" begin="reset.mouseover" end="reset.mouseout"/></use>
  </g>
</defs>
<script type="application/ecmascript">
var viewWidth = 621;
var viewHeight = 232;
var sectionId = 'dynsection-0';
</script>
<script type="application/ecmascript" xlink:href="svg.min.js"/>
<svg id="graph" class="graph">
<g id="viewport">
<title>src/calculatorapp/src/calculatorapp.cpp</title>
<!-- Node1 -->
<g id="Node000001" class="node">
<title>Node1</title>
<g id="a_Node000001"><a xlink:title="Monte Carlo Pi calculation and visualization application.">
<polygon fill="#999999" stroke="#666666" points="320.12,-224 213.38,-224 213.38,-192 320.12,-192 320.12,-224"/>
<text text-anchor="start" x="221.38" y="-210.5" font-family="Helvetica,sans-Serif" font-size="10.00">src/calculatorapp/src</text>
<text text-anchor="middle" x="266.75" y="-198.5" font-family="Helvetica,sans-Serif" font-size="10.00">/calculatorapp.cpp</text>
</a>
</g>
</g>
<!-- Node2 -->
<g id="Node000002" class="node">
<title>Node2</title>
<g id="a_Node000002"><a xlink:title=" ">
<polygon fill="#e0e0e0" stroke="#999999" points="53.5,-150 0,-150 0,-130 53.5,-130 53.5,-150"/>
<text text-anchor="middle" x="26.75" y="-136.5" font-family="Helvetica,sans-Serif" font-size="10.00">iostream</text>
</a>
</g>
</g>
<!-- Node1&#45;&gt;Node2 -->
<g id="edge1_Node000001_Node000002" class="edge">
<title>Node1&#45;&gt;Node2</title>
<g id="a_edge1_Node000001_Node000002"><a xlink:title=" ">
<path fill="none" stroke="#63b8ff" d="M213.29,-195.94C171.77,-186.8 113,-172.65 62.75,-156 61.38,-155.54 59.98,-155.06 58.58,-154.56"/>
<polygon fill="#63b8ff" stroke="#63b8ff" points="59.87,-151.3 49.28,-150.96 57.35,-157.83 59.87,-151.3"/>
</a>
</g>
</g>
<!-- Node3 -->
<g id="Node000003" class="node">
<title>Node3</title>
<g id="a_Node000003"><a xlink:title=" ">
<polygon fill="#e0e0e0" stroke="#999999" points="121.62,-150 71.88,-150 71.88,-130 121.62,-130 121.62,-150"/>
<text text-anchor="middle" x="96.75" y="-136.5" font-family="Helvetica,sans-Serif" font-size="10.00">iomanip</text>
</a>
</g>
</g>
<!-- Node1&#45;&gt;Node3 -->
<g id="edge2_Node000001_Node000003" class="edge">
<title>Node1&#45;&gt;Node3</title>
<g id="a_edge2_Node000001_Node000003"><a xlink:title=" ">
<path fill="none" stroke="#63b8ff" d="M223.63,-191.54C196.77,-181.73 161.57,-168.57 130.75,-156 129.81,-155.62 128.86,-155.22 127.89,-154.82"/>
<polygon fill="#63b8ff" stroke="#63b8ff" points="129.49,-151.7 118.92,-150.99 126.74,-158.14 129.49,-151.7"/>
</a>
</g>
</g>
<!-- Node4 -->
<g id="Node000004" class="node">
<title>Node4</title>
<g id="a_Node000004"><a xlink:title=" ">
<polygon fill="#e0e0e0" stroke="#999999" points="185.38,-150 140.12,-150 140.12,-130 185.38,-130 185.38,-150"/>
<text text-anchor="middle" x="162.75" y="-136.5" font-family="Helvetica,sans-Serif" font-size="10.00">chrono</text>
</a>
</g>
</g>
<!-- Node1&#45;&gt;Node4 -->
<g id="edge3_Node000001_Node000004" class="edge">
<title>Node1&#45;&gt;Node4</title>
<g id="a_edge3_Node000001_Node000004"><a xlink:title=" ">
<path fill="none" stroke="#63b8ff" d="M242.37,-191.53C225.76,-180.99 203.86,-167.09 187.23,-156.54"/>
<polygon fill="#63b8ff" stroke="#63b8ff" points="189.25,-153.67 178.93,-151.27 185.5,-159.58 189.25,-153.67"/>
</a>
</g>
</g>
<!-- Node5 -->
<g id="Node000005" class="node">
<title>Node5</title>
<g id="a_Node000005"><a xlink:title=" ">
<polygon fill="#e0e0e0" stroke="#999999" points="358.25,-82 315.25,-82 315.25,-62 358.25,-62 358.25,-82"/>
<text text-anchor="middle" x="336.75" y="-68.5" font-family="Helvetica,sans-Serif" font-size="10.00">vector</text>
</a>
</g>
</g>
<!-- Node1&#45;&gt;Node5 -->
<g id="edge4_Node000001_Node000005" class="edge">
<title>Node1&#45;&gt;Node5</title>
<g id="a_edge4_Node000001_Node000005"><a xlink:title=" ">
<path fill="none" stroke="#63b8ff" d="M252.35,-191.55C238.08,-174.28 220.17,-145.87 233.75,-124 248.94,-99.52 279.76,-86.43 303.74,-79.67"/>
<polygon fill="#63b8ff" stroke="#63b8ff" points="304.58,-83.07 313.41,-77.21 302.85,-76.29 304.58,-83.07"/>
</a>
</g>
</g>
<!-- Node6 -->
<g id="Node000006" class="node">
<title>Node6</title>
<g id="a_Node000006"><a xlink:title=" ">
<polygon fill="#e0e0e0" stroke="#999999" points="291.25,-150 242.25,-150 242.25,-130 291.25,-130 291.25,-150"/>
<text text-anchor="middle" x="266.75" y="-136.5" font-family="Helvetica,sans-Serif" font-size="10.00">fstream</text>
</a>
</g>
</g>
<!-- Node1&#45;&gt;Node6 -->
<g id="edge5_Node000001_Node000006" class="edge">
<title>Node1&#45;&gt;Node6</title>
<g id="a_edge5_Node000001_Node000006"><a xlink:title=" ">
<path fill="none" stroke="#63b8ff" d="M266.75,-191.69C266.75,-182.8 266.75,-171.46 266.75,-161.77"/>
<polygon fill="#63b8ff" stroke="#63b8ff" points="270.25,-161.83 266.75,-151.83 263.25,-161.83 270.25,-161.83"/>
</a>
</g>
</g>
<!-- Node7 -->
<g id="Node000007" class="node">
<title>Node7</title>
<g id="a_Node000007"><a xlink:title=" ">
<polygon fill="#e0e0e0" stroke="#999999" points="349.75,-150 309.75,-150 309.75,-130 349.75,-130 349.75,-150"/>
<text text-anchor="middle" x="329.75" y="-136.5" font-family="Helvetica,sans-Serif" font-size="10.00">string</text>
</a>
</g>
</g>
<!-- Node1&#45;&gt;Node7 -->
<g id="edge6_Node000001_Node000007" class="edge">
<title>Node1&#45;&gt;Node7</title>
<g id="a_edge6_Node000001_Node000007"><a xlink:title=" ">
<path fill="none" stroke="#63b8ff" d="M281.36,-191.69C290.81,-181.8 303.13,-168.89 312.98,-158.57"/>
<polygon fill="#63b8ff" stroke="#63b8ff" points="315.44,-161.06 319.81,-151.41 310.38,-156.23 315.44,-161.06"/>
</a>
</g>
</g>
<!-- Node8 -->
<g id="Node000008" class="node">
<title>Node8</title>
<g id="a_Node000008"><a xlink:title=" ">
<polygon fill="#e0e0e0" stroke="#999999" points="411.25,-150 368.25,-150 368.25,-130 411.25,-130 411.25,-150"/>
<text text-anchor="middle" x="389.75" y="-136.5" font-family="Helvetica,sans-Serif" font-size="10.00">omp.h</text>
</a>
</g>
</g>
<!-- Node1&#45;&gt;Node8 -->
<g id="edge7_Node000001_Node000008" class="edge">
<title>Node1&#45;&gt;Node8</title>
<g id="a_edge7_Node000001_Node000008"><a xlink:title=" ">
<path fill="none" stroke="#63b8ff" d="M295.59,-191.53C315.69,-180.74 342.35,-166.43 362.17,-155.8"/>
<polygon fill="#63b8ff" stroke="#63b8ff" points="363.63,-158.99 370.79,-151.18 360.32,-152.82 363.63,-158.99"/>
</a>
</g>
</g>
<!-- Node9 -->
<g id="Node000009" class="node">
<title>Node9</title>
<g id="a_Node000009"><a xlink:title=" ">
<polygon fill="#e0e0e0" stroke="#999999" points="472.25,-150 429.25,-150 429.25,-130 472.25,-130 472.25,-150"/>
<text text-anchor="middle" x="450.75" y="-136.5" font-family="Helvetica,sans-Serif" font-size="10.00">cmath</text>
</a>
</g>
</g>
<!-- Node1&#45;&gt;Node9 -->
<g id="edge8_Node000001_Node000009" class="edge">
<title>Node1&#45;&gt;Node9</title>
<g id="a_edge8_Node000001_Node000009"><a xlink:title=" ">
<path fill="none" stroke="#63b8ff" d="M319.47,-191.6C349.53,-182.31 387.69,-169.66 420.75,-156 421.37,-155.74 422,-155.48 422.63,-155.21"/>
<polygon fill="#63b8ff" stroke="#63b8ff" points="423.88,-158.48 431.49,-151.11 420.94,-152.13 423.88,-158.48"/>
</a>
</g>
</g>
<!-- Node10 -->
<g id="Node000010" class="node">
<title>Node10</title>
<g id="a_Node000010"><a xlink:href="calculator_8h.html" target="_top" xlink:title="Provides functions for Monte Carlo Pi calculation and visualization.">
<polygon fill="white" stroke="#666666" points="598.88,-156 490.62,-156 490.62,-124 598.88,-124 598.88,-156"/>
<text text-anchor="start" x="498.62" y="-142.5" font-family="Helvetica,sans-Serif" font-size="10.00">../../calculator/header</text>
<text text-anchor="middle" x="544.75" y="-130.5" font-family="Helvetica,sans-Serif" font-size="10.00">/calculator.h</text>
</a>
</g>
</g>
<!-- Node1&#45;&gt;Node10 -->
<g id="edge9_Node000001_Node000010" class="edge">
<title>Node1&#45;&gt;Node10</title>
<g id="a_edge9_Node000001_Node000010"><a xlink:title=" ">
<path fill="none" stroke="#63b8ff" d="M320.21,-194.33C361.16,-184.62 419.38,-170.82 479.26,-156.59"/>
<polygon fill="#63b8ff" stroke="#63b8ff" points="480.06,-160 488.98,-154.28 478.44,-153.19 480.06,-160"/>
</a>
</g>
</g>
<!-- Node10&#45;&gt;Node5 -->
<g id="edge12_Node000010_Node000005" class="edge">
<title>Node10&#45;&gt;Node5</title>
<g id="a_edge12_Node000010_Node000005"><a xlink:title=" ">
<path fill="none" stroke="#63b8ff" d="M495.98,-123.53C456.93,-111.13 403.24,-94.1 369.27,-83.32"/>
<polygon fill="#63b8ff" stroke="#63b8ff" points="370.58,-80.06 359.99,-80.38 368.47,-86.74 370.58,-80.06"/>
</a>
</g>
</g>
<!-- Node11 -->
<g id="Node000011" class="node">
<title>Node11</title>
<g id="a_Node000011"><a xlink:href="common_types_8h.html" target="_top" xlink:title="Provides cross&#45;platform type definitions.">
<polygon fill="white" stroke="#666666" points="546.25,-88 455.25,-88 455.25,-56 546.25,-56 546.25,-88"/>
<text text-anchor="start" x="463.25" y="-74.5" font-family="Helvetica,sans-Serif" font-size="10.00">../../utility/header</text>
<text text-anchor="middle" x="500.75" y="-62.5" font-family="Helvetica,sans-Serif" font-size="10.00">/commonTypes.h</text>
</a>
</g>
</g>
<!-- Node10&#45;&gt;Node11 -->
<g id="edge10_Node000010_Node000011" class="edge">
<title>Node10&#45;&gt;Node11</title>
<g id="a_edge10_Node000010_Node000011"><a xlink:title=" ">
<path fill="none" stroke="#63b8ff" d="M534.54,-123.69C529.38,-115.95 522.98,-106.35 517.15,-97.6"/>
<polygon fill="#63b8ff" stroke="#63b8ff" points="520.2,-95.86 511.74,-89.48 514.37,-99.75 520.2,-95.86"/>
</a>
</g>
</g>
<!-- Node13 -->
<g id="Node000013" class="node">
<title>Node13</title>
<g id="a_Node000013"><a xlink:title=" ">
<polygon fill="#e0e0e0" stroke="#999999" points="612.88,-82 564.62,-82 564.62,-62 612.88,-62 612.88,-82"/>
<text text-anchor="middle" x="588.75" y="-68.5" font-family="Helvetica,sans-Serif" font-size="10.00">random</text>
</a>
</g>
</g>
<!-- Node10&#45;&gt;Node13 -->
<g id="edge13_Node000010_Node000013" class="edge">
<title>Node10&#45;&gt;Node13</title>
<g id="a_edge13_Node000010_Node000013"><a xlink:title=" ">
<path fill="none" stroke="#63b8ff" d="M554.96,-123.69C561.29,-114.2 569.47,-101.92 576.19,-91.83"/>
<polygon fill="#63b8ff" stroke="#63b8ff" points="579.06,-93.84 581.7,-83.58 573.24,-89.95 579.06,-93.84"/>
</a>
</g>
</g>
<!-- Node12 -->
<g id="Node000012" class="node">
<title>Node12</title>
<g id="a_Node000012"><a xlink:title=" ">
<polygon fill="#e0e0e0" stroke="#999999" points="530.12,-20 471.38,-20 471.38,0 530.12,0 530.12,-20"/>
<text text-anchor="middle" x="500.75" y="-6.5" font-family="Helvetica,sans-Serif" font-size="10.00">stdexcept</text>
</a>
</g>
</g>
<!-- Node11&#45;&gt;Node12 -->
<g id="edge11_Node000011_Node000012" class="edge">
<title>Node11&#45;&gt;Node12</title>
<g id="a_edge11_Node000011_Node000012"><a xlink:title=" ">
<path fill="none" stroke="#63b8ff" d="M500.75,-55.55C500.75,-48.34 500.75,-39.66 500.75,-31.88"/>
<polygon fill="#63b8ff" stroke="#63b8ff" points="504.25,-31.92 500.75,-21.92 497.25,-31.92 504.25,-31.92"/>
</a>
</g>
</g>
</g>
</svg>

<g id="navigator" transform="translate(0 0)" fill="#404254">
  <rect fill="#f2f5e9" fill-opacity="0.5" stroke="#606060" stroke-width=".5" x="0" y="0" width="60" height="60"/>
  <use id="zoomplus" xlink:href="#zoomPlus" x="17" y="9" onmousedown="handleZoom(evt,'in')"/>
  <use id="zoomminus" xlink:href="#zoomMin" x="42" y="9" onmousedown="handleZoom(evt,'out')"/>
  <use id="reset" xlink:href="#resetDef" x="30" y="36" onmousedown="handleReset()"/>
   <use id="arrowup" xlink:href="#arrowUp" x="0" y="0" onmousedown="handlePan(0,-1)"/>
  <use id="arrowright" xlink:href="#arrowRight" x="0" y="0" onmousedown="handlePan(1,0)"/>
  <use id="arrowdown" xlink:href="#arrowDown" x="0" y="0" onmousedown="handlePan(0,1)"/>
  <use id="arrowleft" xlink:href="#arrowLeft" x="0" y="0" onmousedown="handlePan(-1,0)"/>
</g>
<svg viewBox="0 0 15 15" width="100%" height="30px" preserveAspectRatio="xMaxYMin meet">
 <g id="arrow_out" transform="scale(0.3 0.3)">
  <a xlink:href="calculatorapp_8cpp__incl_org.svg" target="_base">
   <rect id="button" ry="5" rx="5" y="6" x="6" height="38" width="38"
        fill="#f2f5e9" fill-opacity="0.5" stroke="#606060" stroke-width="1.0"/>
   <path id="arrow"
     d="M 11.500037,31.436501 C 11.940474,20.09759 22.043105,11.32322 32.158766,21.979434 L 37.068811,17.246167 C 37.068811,17.246167 37.088388,32 37.088388,32 L 22.160133,31.978069 C 22.160133,31.978069 26.997745,27.140456 26.997745,27.140456 C 18.528582,18.264221 13.291696,25.230495 11.500037,31.436501 z"
     style="fill:#404040;"/>
  </a>
 </g>
</svg>

<style type='text/css'>
<![CDATA[
[data-mouse-over-selected='false'] { opacity: 0.7; }
[data-mouse-over-selected='true']  { opacity: 1.0; }
]]>
</style>
<script type="application/ecmascript"><![CDATA[
document.addEventListener('DOMContentLoaded', (event) => {
  highlightEdges();
  highlightAdjacentNodes();
});
]]></script>
</svg>
