<?xml version="1.0" encoding="UTF-8" standalone="no"?>
<!DOCTYPE svg PUBLIC "-//W3C//DTD SVG 1.1//EN"
 "http://www.w3.org/Graphics/SVG/1.1/DTD/svg11.dtd">
<!-- Generated by graphviz version 12.1.2 (20240928.0832)
 -->
<!-- Title: src/calculator/header/calculator.h Pages: 1 -->
<svg width="224pt" height="108pt"
 viewBox="0.00 0.00 223.88 108.00" xmlns="http://www.w3.org/2000/svg" xmlns:xlink="http://www.w3.org/1999/xlink">
<g id="graph0" class="graph" transform="scale(1 1) rotate(0) translate(4 104)">
<title>src/calculator/header/calculator.h</title>
<!-- Node1 -->
<g id="Node000001" class="node">
<title>Node1</title>
<g id="a_Node000001"><a xlink:title="Provides functions for Monte Carlo Pi calculation and visualization.">
<polygon fill="#999999" stroke="#666666" points="156.88,-100 50.13,-100 50.13,-68 156.88,-68 156.88,-100"/>
<text text-anchor="start" x="58.12" y="-86.5" font-family="Helvetica,sans-Serif" font-size="10.00">src/calculator/header</text>
<text text-anchor="middle" x="103.5" y="-74.5" font-family="Helvetica,sans-Serif" font-size="10.00">/calculator.h</text>
</a>
</g>
</g>
<!-- Node2 -->
<g id="Node000002" class="node">
<title>Node2</title>
<g id="a_Node000002"><a xlink:href="calculator_8cpp.html" target="_top" xlink:title="Implementation of Monte Carlo Pi calculation methods.">
<polygon fill="white" stroke="#666666" points="91,-32 0,-32 0,0 91,0 91,-32"/>
<text text-anchor="start" x="8" y="-18.5" font-family="Helvetica,sans-Serif" font-size="10.00">src/calculator/src</text>
<text text-anchor="middle" x="45.5" y="-6.5" font-family="Helvetica,sans-Serif" font-size="10.00">/calculator.cpp</text>
</a>
</g>
</g>
<!-- Node1&#45;&gt;Node2 -->
<g id="edge1_Node000001_Node000002" class="edge">
<title>Node1&#45;&gt;Node2</title>
<g id="a_edge1_Node000001_Node000002"><a xlink:title=" ">
<path fill="none" stroke="#63b8ff" d="M82.54,-59.15C74.65,-50.17 65.89,-40.21 58.88,-32.22"/>
<polygon fill="#63b8ff" stroke="#63b8ff" points="79.82,-61.35 89.05,-66.56 85.08,-56.73 79.82,-61.35"/>
</a>
</g>
</g>
<!-- Node3 -->
<g id="Node000003" class="node">
<title>Node3</title>
<g id="a_Node000003"><a xlink:href="calculatorapp_8cpp.html" target="_top" xlink:title="Monte Carlo Pi calculation and visualization application.">
<polygon fill="white" stroke="#666666" points="215.88,-32 109.12,-32 109.12,0 215.88,0 215.88,-32"/>
<text text-anchor="start" x="117.12" y="-18.5" font-family="Helvetica,sans-Serif" font-size="10.00">src/calculatorapp/src</text>
<text text-anchor="middle" x="162.5" y="-6.5" font-family="Helvetica,sans-Serif" font-size="10.00">/calculatorapp.cpp</text>
</a>
</g>
</g>
<!-- Node1&#45;&gt;Node3 -->
<g id="edge2_Node000001_Node000003" class="edge">
<title>Node1&#45;&gt;Node3</title>
<g id="a_edge2_Node000001_Node000003"><a xlink:title=" ">
<path fill="none" stroke="#63b8ff" d="M124.82,-59.15C132.85,-50.17 141.75,-40.21 148.89,-32.22"/>
<polygon fill="#63b8ff" stroke="#63b8ff" points="122.25,-56.78 118.19,-66.56 127.47,-61.44 122.25,-56.78"/>
</a>
</g>
</g>
</g>
</svg>
