<?xml version="1.0" encoding="UTF-8" standalone="no"?>
<!DOCTYPE svg PUBLIC "-//W3C//DTD SVG 1.1//EN"
 "http://www.w3.org/Graphics/SVG/1.1/DTD/svg11.dtd">
<!-- Generated by graphviz version 12.1.2 (20240928.0832)
 -->
<!-- Title: Coruh::Calculator::Calculator Pages: 1 -->
<svg width="128pt" height="136pt"
 viewBox="0.00 0.00 128.00 136.00" xmlns="http://www.w3.org/2000/svg" xmlns:xlink="http://www.w3.org/1999/xlink">
<g id="graph0" class="graph" transform="scale(1 1) rotate(0) translate(4 132)">
<title>Coruh::Calculator::Calculator</title>
<!-- Node1 -->
<g id="Node000001" class="node">
<title>Node1</title>
<g id="a_Node000001"><a xlink:title="Provides Monte Carlo Pi calculation and visualization functions.">
<polygon fill="#999999" stroke="none" points="120,-128 0,-128 0,0 120,0 120,-128"/>
<text text-anchor="start" x="18.75" y="-114.5" font-family="Helvetica,sans-Serif" font-size="10.00">Coruh::Calculator::</text>
<text text-anchor="start" x="37.88" y="-102.5" font-family="Helvetica,sans-Serif" font-size="10.00">Calculator</text>
<text text-anchor="start" x="58.5" y="-86.5" font-family="Helvetica,sans-Serif" font-size="10.00"> </text>
<text text-anchor="start" x="4" y="-70.5" font-family="Helvetica,sans-Serif" font-size="10.00">+</text>
<text text-anchor="start" x="14" y="-70.5" font-family="Helvetica,sans-Serif" font-size="10.00">calculatePiSequential()</text>
<text text-anchor="start" x="4" y="-54.5" font-family="Helvetica,sans-Serif" font-size="10.00">+</text>
<text text-anchor="start" x="14" y="-54.5" font-family="Helvetica,sans-Serif" font-size="10.00">calculatePiParallel()</text>
<text text-anchor="start" x="4" y="-38.5" font-family="Helvetica,sans-Serif" font-size="10.00">+</text>
<text text-anchor="start" x="14" y="-38.5" font-family="Helvetica,sans-Serif" font-size="10.00">generatePoints()</text>
<text text-anchor="start" x="4" y="-22.5" font-family="Helvetica,sans-Serif" font-size="10.00">+</text>
<text text-anchor="start" x="14" y="-22.5" font-family="Helvetica,sans-Serif" font-size="10.00">calculateConvergence()</text>
<text text-anchor="start" x="5.5" y="-6.5" font-family="Helvetica,sans-Serif" font-size="10.00">&#45;</text>
<text text-anchor="start" x="14" y="-6.5" font-family="Helvetica,sans-Serif" font-size="10.00">isInsideCircle()</text>
<polygon fill="#666666" stroke="#666666" points="0,-98 0,-98 120,-98 120,-98 0,-98"/>
<polygon fill="#666666" stroke="#666666" points="0,-82 0,-82 120,-82 120,-82 0,-82"/>
<polygon fill="none" stroke="#666666" points="0,0 0,-128 120,-128 120,0 0,0"/>
</a>
</g>
</g>
</g>
</svg>
