<?xml version="1.0" encoding="UTF-8" standalone="no"?>
<!DOCTYPE svg PUBLIC "-//W3C//DTD SVG 1.1//EN"
 "http://www.w3.org/Graphics/SVG/1.1/DTD/svg11.dtd">
<!-- Generated by graphviz version 12.1.2 (20240928.0832)
 -->
<!-- Title: src/utility/header/commonTypes.h Pages: 1 -->
<svg width="383pt" height="176pt"
 viewBox="0.00 0.00 382.75 176.00" xmlns="http://www.w3.org/2000/svg" xmlns:xlink="http://www.w3.org/1999/xlink">

<svg id="main" version="1.1" xmlns="http://www.w3.org/2000/svg" xmlns:xlink="http://www.w3.org/1999/xlink" xml:space="preserve">

<style type="text/css"><![CDATA[
.node, .edge {opacity: 0.7;}
.node.selected, .edge.selected {opacity: 1;}
.edge:hover path { stroke: red; }
.edge:hover polygon { stroke: red; fill: red; }
]]></style>
<script type="application/ecmascript" xlink:href="svg.min.js"/>
<svg id="graph" class="graph">
<g id="graph0" class="graph" transform="scale(1 1) rotate(0) translate(4 172)">
<title>src/utility/header/commonTypes.h</title>
<!-- Node1 -->
<g id="Node000001" class="node">
<title>Node1</title>
<g id="a_Node000001"><a xlink:title="Provides cross&#45;platform type definitions.">
<polygon fill="#999999" stroke="#666666" points="265,-168 174,-168 174,-136 265,-136 265,-168"/>
<text text-anchor="start" x="182" y="-154.5" font-family="Helvetica,sans-Serif" font-size="10.00">src/utility/header</text>
<text text-anchor="middle" x="219.5" y="-142.5" font-family="Helvetica,sans-Serif" font-size="10.00">/commonTypes.h</text>
</a>
</g>
</g>
<!-- Node2 -->
<g id="Node000002" class="node">
<title>Node2</title>
<g id="a_Node000002"><a xlink:href="calculator_8h.html" target="_top" xlink:title="Provides functions for Monte Carlo Pi calculation and visualization.">
<polygon fill="white" stroke="#666666" points="215.88,-100 109.12,-100 109.12,-68 215.88,-68 215.88,-100"/>
<text text-anchor="start" x="117.12" y="-86.5" font-family="Helvetica,sans-Serif" font-size="10.00">src/calculator/header</text>
<text text-anchor="middle" x="162.5" y="-74.5" font-family="Helvetica,sans-Serif" font-size="10.00">/calculator.h</text>
</a>
</g>
</g>
<!-- Node1&#45;&gt;Node2 -->
<g id="edge1_Node000001_Node000002" class="edge">
<title>Node1&#45;&gt;Node2</title>
<g id="a_edge1_Node000001_Node000002"><a xlink:title=" ">
<path fill="none" stroke="#63b8ff" d="M198.9,-127.15C191.15,-118.17 182.54,-108.21 175.65,-100.22"/>
<polygon fill="#63b8ff" stroke="#63b8ff" points="196.11,-129.27 205.29,-134.55 201.4,-124.69 196.11,-129.27"/>
</a>
</g>
</g>
<!-- Node5 -->
<g id="Node000005" class="node">
<title>Node5</title>
<g id="a_Node000005"><a xlink:href="math_utility_8h.html" target="_top" xlink:title="Provides functions for math. utilities.">
<polygon fill="white" stroke="#666666" points="334.5,-100 246.5,-100 246.5,-68 334.5,-68 334.5,-100"/>
<text text-anchor="start" x="254.5" y="-86.5" font-family="Helvetica,sans-Serif" font-size="10.00">src/utility/header</text>
<text text-anchor="middle" x="290.5" y="-74.5" font-family="Helvetica,sans-Serif" font-size="10.00">/mathUtility.h</text>
</a>
</g>
</g>
<!-- Node1&#45;&gt;Node5 -->
<g id="edge4_Node000001_Node000005" class="edge">
<title>Node1&#45;&gt;Node5</title>
<g id="a_edge4_Node000001_Node000005"><a xlink:title=" ">
<path fill="none" stroke="#63b8ff" d="M244.26,-127.99C254.15,-118.79 265.27,-108.46 274.12,-100.22"/>
<polygon fill="#63b8ff" stroke="#63b8ff" points="242.02,-125.29 237.08,-134.66 246.78,-130.42 242.02,-125.29"/>
</a>
</g>
</g>
<!-- Node3 -->
<g id="Node000003" class="node">
<title>Node3</title>
<g id="a_Node000003"><a xlink:href="calculator_8cpp.html" target="_top" xlink:title="Implementation of Monte Carlo Pi calculation methods.">
<polygon fill="white" stroke="#666666" points="91,-32 0,-32 0,0 91,0 91,-32"/>
<text text-anchor="start" x="8" y="-18.5" font-family="Helvetica,sans-Serif" font-size="10.00">src/calculator/src</text>
<text text-anchor="middle" x="45.5" y="-6.5" font-family="Helvetica,sans-Serif" font-size="10.00">/calculator.cpp</text>
</a>
</g>
</g>
<!-- Node2&#45;&gt;Node3 -->
<g id="edge2_Node000002_Node000003" class="edge">
<title>Node2&#45;&gt;Node3</title>
<g id="a_edge2_Node000002_Node000003"><a xlink:title=" ">
<path fill="none" stroke="#63b8ff" d="M125.39,-62.07C108.32,-52.44 88.42,-41.21 72.76,-32.38"/>
<polygon fill="#63b8ff" stroke="#63b8ff" points="123.32,-64.92 133.75,-66.78 126.76,-58.82 123.32,-64.92"/>
</a>
</g>
</g>
<!-- Node4 -->
<g id="Node000004" class="node">
<title>Node4</title>
<g id="a_Node000004"><a xlink:href="calculatorapp_8cpp.html" target="_top" xlink:title="Monte Carlo Pi calculation and visualization application.">
<polygon fill="white" stroke="#666666" points="215.88,-32 109.12,-32 109.12,0 215.88,0 215.88,-32"/>
<text text-anchor="start" x="117.12" y="-18.5" font-family="Helvetica,sans-Serif" font-size="10.00">src/calculatorapp/src</text>
<text text-anchor="middle" x="162.5" y="-6.5" font-family="Helvetica,sans-Serif" font-size="10.00">/calculatorapp.cpp</text>
</a>
</g>
</g>
<!-- Node2&#45;&gt;Node4 -->
<g id="edge3_Node000002_Node000004" class="edge">
<title>Node2&#45;&gt;Node4</title>
<g id="a_edge3_Node000002_Node000004"><a xlink:title=" ">
<path fill="none" stroke="#63b8ff" d="M162.5,-56.31C162.5,-48.12 162.5,-39.38 162.5,-32.22"/>
<polygon fill="#63b8ff" stroke="#63b8ff" points="159,-56.18 162.5,-66.18 166,-56.18 159,-56.18"/>
</a>
</g>
</g>
<!-- Node6 -->
<g id="Node000006" class="node">
<title>Node6</title>
<g id="a_Node000006"><a xlink:href="math_utility_8cpp.html" target="_top" xlink:title="Provides functions for math. utilities.">
<polygon fill="white" stroke="#666666" points="374.75,-26 234.25,-26 234.25,-6 374.75,-6 374.75,-26"/>
<text text-anchor="middle" x="304.5" y="-12.5" font-family="Helvetica,sans-Serif" font-size="10.00">src/utility/src/mathUtility.cpp</text>
</a>
</g>
</g>
<!-- Node5&#45;&gt;Node6 -->
<g id="edge5_Node000005_Node000006" class="edge">
<title>Node5&#45;&gt;Node6</title>
<g id="a_edge5_Node000005_Node000006"><a xlink:title=" ">
<path fill="none" stroke="#63b8ff" d="M296.09,-56.66C298.36,-45.92 300.85,-34.21 302.52,-26.32"/>
<polygon fill="#63b8ff" stroke="#63b8ff" points="292.71,-55.7 294.06,-66.21 299.56,-57.16 292.71,-55.7"/>
</a>
</g>
</g>
</g>
</svg>
</svg>

<style type='text/css'>
<![CDATA[
[data-mouse-over-selected='false'] { opacity: 0.7; }
[data-mouse-over-selected='true']  { opacity: 1.0; }
]]>
</style>
<script type="application/ecmascript"><![CDATA[
document.addEventListener('DOMContentLoaded', (event) => {
  highlightEdges();
  highlightAdjacentNodes();
});
]]></script>
</svg>
