<?xml version="1.0" encoding="UTF-8" standalone="no"?>
<!DOCTYPE svg PUBLIC "-//W3C//DTD SVG 1.1//EN"
 "http://www.w3.org/Graphics/SVG/1.1/DTD/svg11.dtd">
<!-- Generated by graphviz version 12.1.2 (20240928.0832)
 -->
<!-- Title: src/calculator/src/calculator.cpp Pages: 1 -->
<svg width="387pt" height="220pt"
 viewBox="0.00 0.00 387.00 220.00" xmlns="http://www.w3.org/2000/svg" xmlns:xlink="http://www.w3.org/1999/xlink">
<g id="graph0" class="graph" transform="scale(1 1) rotate(0) translate(4 216)">
<title>src/calculator/src/calculator.cpp</title>
<!-- Node1 -->
<g id="Node000001" class="node">
<title>Node1</title>
<g id="a_Node000001"><a xlink:title="Implementation of Monte Carlo Pi calculation methods.">
<polygon fill="#999999" stroke="#666666" points="292,-212 201,-212 201,-180 292,-180 292,-212"/>
<text text-anchor="start" x="209" y="-198.5" font-family="Helvetica,sans-Serif" font-size="10.00">src/calculator/src</text>
<text text-anchor="middle" x="246.5" y="-186.5" font-family="Helvetica,sans-Serif" font-size="10.00">/calculator.cpp</text>
</a>
</g>
</g>
<!-- Node2 -->
<g id="Node000002" class="node">
<title>Node2</title>
<g id="a_Node000002"><a xlink:href="$calculator_8h.html" xlink:title="Provides functions for Monte Carlo Pi calculation and visualization.">
<polygon fill="white" stroke="#666666" points="180.25,-144 72.75,-144 72.75,-124 180.25,-124 180.25,-144"/>
<text text-anchor="middle" x="126.5" y="-130.5" font-family="Helvetica,sans-Serif" font-size="10.00">../header/calculator.h</text>
</a>
</g>
</g>
<!-- Node1&#45;&gt;Node2 -->
<g id="edge19_Node000001_Node000002" class="edge">
<title>Node1&#45;&gt;Node2</title>
<g id="a_edge19_Node000001_Node000002"><a xlink:title=" ">
<path fill="none" stroke="#63b8ff" d="M215.6,-179.55C197.11,-170.3 173.75,-158.63 155.6,-149.55"/>
<polygon fill="#63b8ff" stroke="#63b8ff" points="157.18,-146.43 146.67,-145.08 154.05,-152.69 157.18,-146.43"/>
</a>
</g>
</g>
<!-- Node4 -->
<g id="Node000004" class="node">
<title>Node4</title>
<g id="a_Node000004"><a xlink:title=" ">
<polygon fill="#e0e0e0" stroke="#999999" points="174.88,-20 116.12,-20 116.12,0 174.88,0 174.88,-20"/>
<text text-anchor="middle" x="145.5" y="-6.5" font-family="Helvetica,sans-Serif" font-size="10.00">stdexcept</text>
</a>
</g>
</g>
<!-- Node1&#45;&gt;Node4 -->
<g id="edge24_Node000001_Node000004" class="edge">
<title>Node1&#45;&gt;Node4</title>
<g id="a_edge24_Node000001_Node000004"><a xlink:title=" ">
<path fill="none" stroke="#63b8ff" d="M248.59,-179.65C251.49,-152.23 253.72,-94.13 227.5,-56 217.48,-41.43 201.15,-31.12 185.69,-24.07"/>
<polygon fill="#63b8ff" stroke="#63b8ff" points="187.19,-20.9 176.62,-20.29 184.5,-27.36 187.19,-20.9"/>
</a>
</g>
</g>
<!-- Node6 -->
<g id="Node000006" class="node">
<title>Node6</title>
<g id="a_Node000006"><a xlink:title=" ">
<polygon fill="#e0e0e0" stroke="#999999" points="218.62,-82 170.38,-82 170.38,-62 218.62,-62 218.62,-82"/>
<text text-anchor="middle" x="194.5" y="-68.5" font-family="Helvetica,sans-Serif" font-size="10.00">random</text>
</a>
</g>
</g>
<!-- Node1&#45;&gt;Node6 -->
<g id="edge25_Node000001_Node000006" class="edge">
<title>Node1&#45;&gt;Node6</title>
<g id="a_edge25_Node000001_Node000006"><a xlink:title=" ">
<path fill="none" stroke="#63b8ff" d="M239.91,-179.55C230.52,-157.51 213.27,-117.04 202.95,-92.82"/>
<polygon fill="#63b8ff" stroke="#63b8ff" points="206.23,-91.6 199.09,-83.78 199.79,-94.35 206.23,-91.6"/>
</a>
</g>
</g>
<!-- Node7 -->
<g id="Node000007" class="node">
<title>Node7</title>
<g id="a_Node000007"><a xlink:title=" ">
<polygon fill="#e0e0e0" stroke="#999999" points="318,-144 275,-144 275,-124 318,-124 318,-144"/>
<text text-anchor="middle" x="296.5" y="-130.5" font-family="Helvetica,sans-Serif" font-size="10.00">cmath</text>
</a>
</g>
</g>
<!-- Node1&#45;&gt;Node7 -->
<g id="edge26_Node000001_Node000007" class="edge">
<title>Node1&#45;&gt;Node7</title>
<g id="a_edge26_Node000001_Node000007"><a xlink:title=" ">
<path fill="none" stroke="#63b8ff" d="M259.38,-179.55C266.1,-171.48 274.38,-161.55 281.4,-153.12"/>
<polygon fill="#63b8ff" stroke="#63b8ff" points="283.98,-155.49 287.69,-145.57 278.6,-151.01 283.98,-155.49"/>
</a>
</g>
</g>
<!-- Node8 -->
<g id="Node000008" class="node">
<title>Node8</title>
<g id="a_Node000008"><a xlink:title=" ">
<polygon fill="#e0e0e0" stroke="#999999" points="379,-144 336,-144 336,-124 379,-124 379,-144"/>
<text text-anchor="middle" x="357.5" y="-130.5" font-family="Helvetica,sans-Serif" font-size="10.00">omp.h</text>
</a>
</g>
</g>
<!-- Node1&#45;&gt;Node8 -->
<g id="edge27_Node000001_Node000008" class="edge">
<title>Node1&#45;&gt;Node8</title>
<g id="a_edge27_Node000001_Node000008"><a xlink:title=" ">
<path fill="none" stroke="#63b8ff" d="M275.09,-179.55C292.11,-170.35 313.59,-158.74 330.35,-149.68"/>
<polygon fill="#63b8ff" stroke="#63b8ff" points="331.63,-152.96 338.76,-145.13 328.3,-146.8 331.63,-152.96"/>
</a>
</g>
</g>
<!-- Node3 -->
<g id="Node000003" class="node">
<title>Node3</title>
<g id="a_Node000003"><a xlink:href="$common_types_8h.html" xlink:title="Provides cross&#45;platform type definitions.">
<polygon fill="white" stroke="#666666" points="91,-88 0,-88 0,-56 91,-56 91,-88"/>
<text text-anchor="start" x="8" y="-74.5" font-family="Helvetica,sans-Serif" font-size="10.00">../../utility/header</text>
<text text-anchor="middle" x="45.5" y="-62.5" font-family="Helvetica,sans-Serif" font-size="10.00">/commonTypes.h</text>
</a>
</g>
</g>
<!-- Node2&#45;&gt;Node3 -->
<g id="edge20_Node000002_Node000003" class="edge">
<title>Node2&#45;&gt;Node3</title>
<g id="a_edge20_Node000002_Node000003"><a xlink:title=" ">
<path fill="none" stroke="#63b8ff" d="M113.84,-123.62C103.5,-115.97 88.47,-104.83 75.14,-94.95"/>
<polygon fill="#63b8ff" stroke="#63b8ff" points="77.59,-92.41 67.47,-89.27 73.42,-98.04 77.59,-92.41"/>
</a>
</g>
</g>
<!-- Node5 -->
<g id="Node000005" class="node">
<title>Node5</title>
<g id="a_Node000005"><a xlink:title=" ">
<polygon fill="#e0e0e0" stroke="#999999" points="152,-82 109,-82 109,-62 152,-62 152,-82"/>
<text text-anchor="middle" x="130.5" y="-68.5" font-family="Helvetica,sans-Serif" font-size="10.00">vector</text>
</a>
</g>
</g>
<!-- Node2&#45;&gt;Node5 -->
<g id="edge22_Node000002_Node000005" class="edge">
<title>Node2&#45;&gt;Node5</title>
<g id="a_edge22_Node000002_Node000005"><a xlink:title=" ">
<path fill="none" stroke="#63b8ff" d="M127.12,-123.62C127.66,-115.56 128.46,-103.65 129.14,-93.41"/>
<polygon fill="#63b8ff" stroke="#63b8ff" points="132.62,-93.83 129.79,-83.62 125.63,-93.37 132.62,-93.83"/>
</a>
</g>
</g>
<!-- Node2&#45;&gt;Node6 -->
<g id="edge23_Node000002_Node000006" class="edge">
<title>Node2&#45;&gt;Node6</title>
<g id="a_edge23_Node000002_Node000006"><a xlink:title=" ">
<path fill="none" stroke="#63b8ff" d="M137.12,-123.62C147.46,-114.5 163.4,-100.45 175.85,-89.46"/>
<polygon fill="#63b8ff" stroke="#63b8ff" points="177.85,-92.35 183.04,-83.11 173.22,-87.11 177.85,-92.35"/>
</a>
</g>
</g>
<!-- Node3&#45;&gt;Node4 -->
<g id="edge21_Node000003_Node000004" class="edge">
<title>Node3&#45;&gt;Node4</title>
<g id="a_edge21_Node000003_Node000004"><a xlink:title=" ">
<path fill="none" stroke="#63b8ff" d="M71.25,-55.55C86.3,-46.52 105.21,-35.17 120.18,-26.19"/>
<polygon fill="#63b8ff" stroke="#63b8ff" points="121.75,-29.33 128.52,-21.19 118.15,-23.33 121.75,-29.33"/>
</a>
</g>
</g>
</g>
</svg>
